<svg width="500" height="500" fill="none" xmlns="http://www.w3.org/2000/svg"><path d="M245.361 416.667c0 46.023-37.31 83.333-83.334 83.333-46.023 0-83.333-37.31-83.333-83.333 0-46.024 37.31-83.334 83.333-83.334 46.024 0 83.334 37.31 83.334 83.334z" fill="#FFC35D"/><path d="M245.361 250c0 46.024-37.31 83.333-83.334 83.333-46.023 0-83.333-37.309-83.333-83.333s37.31-83.333 83.333-83.333c46.024 0 83.334 37.309 83.334 83.333z" fill="#3B68D9"/><path d="M245.361 83.333c0 46.024-37.31 83.334-83.334 83.334-46.023 0-83.333-37.31-83.333-83.334C78.694 37.31 116.004 0 162.027 0c46.024 0 83.334 37.31 83.334 83.333z" fill="#FE687A"/><path d="M412.028 416.667c0 46.023-37.31 83.333-83.334 83.333s-83.333-37.31-83.333-83.333c0-46.024 37.309-83.334 83.333-83.334s83.334 37.31 83.334 83.334z" fill="#3B68D9"/><path d="M412.028 250c0 46.024-37.31 83.333-83.334 83.333S245.361 296.024 245.361 250s37.309-83.333 83.333-83.333 83.334 37.309 83.334 83.333z" fill="#FE687A"/><path d="M412.028 83.333c0 46.024-37.31 83.334-83.334 83.334s-83.333-37.31-83.333-83.334C245.361 37.31 282.67 0 328.694 0s83.334 37.31 83.334 83.333z" fill="#FFC35D"/><path d="M0 166.54c43.866-2.407 78.694-38.74 78.694-83.207C78.694 38.866 43.866 2.533 0 .127V166.54z" fill="#3B68D9"/><path d="M0 333.206V166.794C43.866 169.2 78.694 205.533 78.694 250c0 44.467-34.828 80.799-78.694 83.206z" fill="#FFC35D"/><path d="M0 499.873V333.46c43.866 2.407 78.694 38.739 78.694 83.207 0 44.467-34.828 80.799-78.694 83.206z" fill="#FE687A"/><path d="M500 .127V166.54a84.928 84.928 0 01-4.639.127c-46.024 0-83.333-37.31-83.333-83.334C412.028 37.31 449.337 0 495.361 0c1.557 0 3.103.043 4.639.127z" fill="#3B68D9"/><path d="M500 166.794v166.412a83.936 83.936 0 01-4.639.127c-46.024 0-83.333-37.309-83.333-83.333s37.309-83.333 83.333-83.333c1.557 0 3.103.042 4.639.127z" fill="#FFC35D"/><path d="M500 499.873a84.928 84.928 0 01-4.639.127c-46.024 0-83.333-37.31-83.333-83.333 0-46.024 37.309-83.334 83.333-83.334 1.557 0 3.103.043 4.639.127v166.413z" fill="#FE687A"/><path fill-rule="evenodd" clip-rule="evenodd" d="M318.284 62.851c0 8.712-4.734 15.774-10.572 15.774-5.839 0-10.572-7.062-10.572-15.774s4.733-15.774 10.572-15.774c5.838 0 10.572 7.062 10.572 15.774zm41.965 0c0 8.712-4.734 15.774-10.572 15.774-5.839 0-10.572-7.062-10.572-15.774s4.733-15.774 10.572-15.774c5.838 0 10.572 7.062 10.572 15.774zm-70.448 33.311a5 5 0 10-8.624 5.062c9.356 15.942 28.004 23.372 46.241 23.366 18.276-.006 37.512-7.446 48.558-23.002a5 5 0 10-8.153-5.79c-8.724 12.286-24.512 18.787-40.408 18.792-15.934.005-30.606-6.486-37.614-18.428zm-150.756-2.418c8.712 0 15.774 4.733 15.774 10.572 0 5.838-7.062 10.571-15.774 10.571-8.711 0-15.774-4.733-15.774-10.571 0-5.84 7.063-10.572 15.774-10.572zm0-41.965c8.712 0 15.774 4.733 15.774 10.571 0 5.84-7.062 10.572-15.774 10.572-8.711 0-15.774-4.733-15.774-10.572 0-5.838 7.063-10.571 15.774-10.571zm33.312 70.447a5 5 0 105.061 8.625c15.942-9.356 23.372-28.005 23.366-46.242-.005-18.276-7.446-37.512-23.002-48.558a5 5 0 00-5.79 8.154c12.286 8.724 18.787 24.511 18.792 40.407.005 15.934-6.486 30.606-18.427 37.614zm-1.44 104.161c-6.16 6.16-14.5 7.807-18.629 3.679-4.128-4.129-2.482-12.469 3.678-18.629 6.161-6.16 14.501-7.807 18.63-3.679 4.128 4.129 2.481 12.469-3.679 18.629zm29.674 29.674c-6.16 6.16-14.501 7.807-18.629 3.678-4.129-4.128-2.482-12.469 3.678-18.629 6.16-6.16 14.501-7.807 18.629-3.678 4.129 4.129 2.482 12.469-3.678 18.629zm-73.368-26.259a5 5 0 00-9.678-2.52c-4.657 17.889 3.276 36.329 16.176 49.221 12.927 12.919 31.79 21.259 50.6 18.07a4.999 4.999 0 004.094-5.765 4.999 4.999 0 00-5.765-4.094c-14.857 2.519-30.617-4.048-41.861-15.284-11.27-11.264-17.055-26.228-13.566-39.628zm217.773 9.787c-8.712 0-15.774-4.733-15.774-10.572 0-5.838 7.062-10.571 15.774-10.571 8.711 0 15.774 4.733 15.774 10.571 0 5.839-7.063 10.572-15.774 10.572zm0 41.965c-8.712 0-15.774-4.733-15.774-10.572 0-5.838 7.062-10.571 15.774-10.571 8.711 0 15.774 4.733 15.774 10.571 0 5.839-7.063 10.572-15.774 10.572zm-33.312-70.447a5 5 0 10-5.061-8.625c-15.942 9.356-23.372 28.005-23.366 46.242.005 18.276 7.446 37.512 23.002 48.558a5 5 0 105.79-8.154c-12.286-8.724-18.787-24.511-18.792-40.407-.005-15.934 6.486-30.606 18.427-37.614zM185.64 425.556c-6.16-6.16-7.807-14.5-3.678-18.629 4.129-4.128 12.469-2.481 18.629 3.679 6.16 6.16 7.807 14.5 3.679 18.629-4.129 4.128-12.47 2.482-18.63-3.679zm-29.673 29.674c-6.16-6.16-7.807-14.5-3.679-18.629 4.129-4.129 12.469-2.482 18.63 3.678 6.16 6.16 7.806 14.501 3.678 18.63-4.129 4.128-12.469 2.481-18.629-3.679zm26.259-73.368a5 5 0 102.519-9.678c-17.888-4.657-36.328 3.276-49.22 16.176-12.919 12.927-21.259 31.79-18.07 50.6a5 5 0 009.859-1.671c-2.519-14.856 4.048-30.617 15.284-41.86 11.264-11.271 26.228-17.056 39.628-13.567zm156.879 57.787c0-8.712 4.733-15.774 10.572-15.774 5.839 0 10.572 7.062 10.572 15.774s-4.733 15.774-10.572 15.774c-5.839 0-10.572-7.062-10.572-15.774zm-41.965 0c0-8.712 4.733-15.774 10.572-15.774 5.839 0 10.572 7.062 10.572 15.774s-4.733 15.774-10.572 15.774c-5.839 0-10.572-7.062-10.572-15.774zm70.447-33.311a5 5 0 008.625-5.062c-9.356-15.942-28.004-23.372-46.242-23.366-18.276.006-37.512 7.446-48.558 23.002a5 5 0 008.154 5.79c8.724-12.286 24.511-18.787 40.407-18.792 15.934-.005 30.606 6.486 37.614 18.428z" fill="#fff"/></svg>